<?xml version="1.0" encoding="utf-8"?>
<!-- Generator: Adobe Illustrator 25.4.1, SVG Export Plug-In . SVG Version: 6.00 Build 0)  -->
<svg version="1.1" id="Layer_1" xmlns="http://www.w3.org/2000/svg" xmlns:xlink="http://www.w3.org/1999/xlink" x="0px" y="0px"
	 viewBox="0 0 348 104" style="enable-background:new 0 0 348 104;" xml:space="preserve">
<style type="text/css">
	.st0{fill:#FCC10D;}
	.st1{fill:#121B21;}
	.st2{fill:#FEFEFE;}
	.st3{fill:#FEC00E;}
	.st4{fill:#141515;}
	.st5{fill:none;stroke:#000000;stroke-miterlimit:10;}
	.st6{fill:none;stroke:#000000;stroke-width:0.5;stroke-miterlimit:10;}
	.st7{fill:#C72031;}
	.st8{fill:#20AA4B;}
	.st9{fill:#903CA3;}
	.st10{fill:#E45E3C;}
</style>
<g>
	<g>
		<g>
			<circle class="st3" cx="114.4" cy="22.3" r="12.1"/>
			<g>
				<path class="st4" d="M15.2,44.6c-0.1,0.3-0.5,0.5-0.7,0.6c-0.3,0.1-0.6,0.3-1.1,0.3H10V41h2.5c0.3,0,0.6,0,0.9,0.1
					c0.3,0,0.6,0.1,0.9,0.3c0.3,0.1,0.6,0.5,0.7,0.7c0.1,0.3,0.3,0.7,0.3,1.2C15.5,43.7,15.4,44.2,15.2,44.6L15.2,44.6z M10,34.6
					h2.3c0.3,0,0.6,0,0.9,0.1c0.3,0.1,0.5,0.1,0.7,0.3c0.3,0.1,0.5,0.3,0.6,0.6c0.3,0.6,0.3,1.3,0,1.9c-0.1,0.3-0.3,0.5-0.6,0.6
					c-0.3,0.1-0.5,0.3-0.7,0.3c-0.3,0.1-0.6,0.1-0.9,0.1H10V34.6z M18.6,45.8L18.6,45.8c0.3-0.6,0.5-1.3,0.5-2.1
					c0-0.6-0.1-1.2-0.3-1.7c-0.1-0.5-0.5-0.9-0.9-1.2c-0.3-0.3-0.7-0.6-1.1-0.7c-0.3-0.1-0.6-0.3-1.1-0.3l-0.5-0.1l0.5-0.1
					c0.3-0.1,0.5-0.1,0.7-0.3c0.3-0.1,0.6-0.5,0.9-0.7c0.3-0.3,0.5-0.6,0.6-1.1c0.3-0.5,0.3-0.9,0.3-1.3c0-0.6-0.1-1.1-0.3-1.7
					c-0.1-0.5-0.5-0.9-0.9-1.3s-1.1-0.7-1.7-0.9C14.6,32,13.8,32,13,32H6.5v16.5h6.1c0.9,0,1.8,0,2.7-0.3c0.7-0.1,1.3-0.5,1.9-0.9
					C17.9,46.8,18.4,46.5,18.6,45.8z"/>
				<path class="st4" d="M26.3,34.6h2.5c0.6,0,1.3,0.1,1.8,0.6c0.5,0.5,0.7,1.1,0.6,1.8c0,0.6-0.1,1.2-0.6,1.7
					c-0.5,0.5-1.2,0.7-1.8,0.7h-2.5V34.6z M31.8,48.2h3.7L32,41.6l0.1-0.1c0.7-0.5,1.5-1.1,1.9-1.9c0.5-0.9,0.6-1.8,0.6-2.9
					c0-0.6-0.1-1.3-0.3-1.9c-0.1-0.6-0.6-1.2-1.1-1.7c-0.5-0.5-1.2-0.9-1.8-1.1c-0.7-0.3-1.7-0.5-2.5-0.5h-6.1V48h3.3v-6.1h2.4
					L31.8,48.2z"/>
				<rect x="39.3" y="31.9" class="st4" width="3.5" height="16.5"/>
				<path class="st4" d="M62.1,39.4h-6.1V42h3v2.5l0,0c-0.5,0.3-0.9,0.6-1.5,0.7c-0.6,0.1-1.3,0.3-1.9,0.3c-0.7,0-1.3-0.1-1.9-0.5
					c-0.6-0.3-1.2-0.6-1.7-1.1c-0.5-0.5-0.9-1.1-1.2-1.7c-0.5-1.3-0.5-3,0-4.3c0.5-1.3,1.3-2.4,2.5-3.1c0.7-0.3,1.5-0.5,2.3-0.5
					c0.9,0,1.7,0.1,2.4,0.6c0.6,0.5,1.2,0.9,1.7,1.5l2.3-2.3c-0.7-0.9-1.7-1.7-2.7-2.3c-1.2-0.6-2.5-0.9-3.9-0.9
					c-1.2,0-2.4,0.3-3.5,0.7c-1.1,0.5-1.9,1.1-2.7,1.8s-1.3,1.7-1.7,2.7c-0.5,1.1-0.6,2.3-0.6,3.5s0.1,2.4,0.6,3.5
					c0.3,1.1,0.9,1.9,1.7,2.7c0.8,0.7,1.7,1.3,2.7,1.8c1.2,0.5,2.4,0.6,3.6,0.6c1.3,0,2.7-0.1,3.9-0.6c1.1-0.3,2.1-0.9,3-1.7
					L62.1,39.4L62.1,39.4z"/>
				<path class="st4" d="M73,35.2l2.3,6.6H71L73,35.2z M76,44.5L76,44.5l1.3,3.9h3.7l-5.9-16.5H71l-6,16.5h3.7l1.2-3.9H76z"/>
				<path class="st4" d="M94.3,43.9c-1.1,1.1-2.5,1.5-4.1,1.3h-2.4V34.9h2.5c0.7,0,1.7,0.1,2.4,0.3c0.6,0.3,1.2,0.6,1.7,1.1
					c0.5,0.5,0.7,0.9,1.1,1.5c0.1,0.7,0.3,1.3,0.3,2.1C95.8,41.5,95.3,42.9,94.3,43.9z M98.7,43.7L98.7,43.7
					c0.5-1.2,0.7-2.4,0.6-3.6c0-1.3-0.1-2.5-0.6-3.7c-0.5-1.1-1.1-1.9-1.8-2.5c-0.7-0.7-1.8-1.2-2.7-1.5c-1.2-0.3-2.4-0.5-3.6-0.5
					h-6.1v16.5h6.1c1.2,0,2.4-0.1,3.6-0.5c1.1-0.3,1.9-0.7,2.7-1.5C97.6,45.7,98.2,44.8,98.7,43.7L98.7,43.7z"/>
				<polygon class="st4" points="106.9,45.2 106.9,41.3 112,41.3 112.7,38.5 106.9,38.5 106.9,34.8 113.6,34.8 114.4,31.9 
					103.4,31.9 103.4,48.2 113.6,48.2 114.4,45.2 				"/>
			</g>
		</g>
		<g>
			<g>
				<path d="M14.7,68.4H9.9l-0.8,2.3H6.5l4.3-12.1h2.8L18,70.7h-2.5L14.7,68.4z M14,66.4l-1.8-5l-1.8,5H14z"/>
				<path d="M22,58.6v7.5c0,0.8,0.2,1.4,0.6,1.9c0.4,0.4,1,0.6,1.8,0.6c0.8,0,1.4-0.2,1.8-0.6c0.4-0.4,0.6-1.1,0.6-1.9v-7.5h2.4v7.4
					c0,1-0.2,1.9-0.6,2.6c-0.5,0.7-1,1.2-1.8,1.6c-0.7,0.4-1.6,0.6-2.5,0.6c-0.9,0-1.7-0.2-2.4-0.6c-0.7-0.4-1.3-0.9-1.8-1.6
					c-0.4-0.7-0.6-1.6-0.6-2.6v-7.4H22z"/>
				<path d="M39.9,58.6v1.9h-3.2v10.1h-2.4V60.6H31v-1.9L39.9,58.6L39.9,58.6z"/>
				<path d="M51.7,58.6v12.1h-2.4v-5.1h-5.2v5.1h-2.4V58.6h2.4v4.9h5.2v-4.9H51.7z"/>
				<path d="M56.5,70c-0.9-0.5-1.7-1.2-2.3-2.2c-0.6-0.9-0.8-2-0.8-3.2c0-1.2,0.3-2.2,0.8-3.2c0.6-0.9,1.3-1.7,2.3-2.2
					c0.9-0.5,2-0.8,3.1-0.8c1.2,0,2.2,0.3,3.1,0.8c0.9,0.5,1.7,1.2,2.2,2.2c0.6,0.9,0.8,2,0.8,3.2c0,1.2-0.3,2.3-0.8,3.2
					c-0.6,0.9-1.3,1.7-2.2,2.2c-0.9,0.5-2,0.8-3.1,0.8C58.5,70.8,57.5,70.6,56.5,70z M61.5,68.2c0.6-0.3,1-0.8,1.3-1.4
					c0.3-0.6,0.5-1.3,0.5-2.1s-0.1-1.5-0.5-2.1c-0.3-0.6-0.7-1.1-1.3-1.4c-0.6-0.3-1.2-0.5-1.9-0.5c-0.7,0-1.4,0.1-1.9,0.5
					c-0.6,0.3-1,0.8-1.3,1.4c-0.3,0.6-0.5,1.3-0.5,2.1s0.1,1.5,0.5,2.1c0.3,0.6,0.7,1.1,1.3,1.4c0.6,0.3,1.2,0.5,1.9,0.5
					C60.3,68.6,61,68.5,61.5,68.2z"/>
				<path d="M73.8,70.7L71.1,66H70v4.7h-2.4V58.7h4.5c0.9,0,1.7,0.2,2.4,0.5c0.6,0.3,1.2,0.8,1.5,1.3s0.5,1.2,0.5,1.9
					c0,0.8-0.2,1.5-0.7,2.2c-0.5,0.6-1.2,1.1-2.1,1.3l2.9,4.9L73.8,70.7L73.8,70.7z M70,64.2h2c0.6,0,1.2-0.1,1.5-0.5S74,63,74,62.4
					c0-0.6-0.1-1-0.5-1.3s-0.8-0.5-1.5-0.5h-2V64.2z"/>
				<path d="M81.1,58.6v12.1h-2.4V58.6H81.1z"/>
				<path d="M85.4,70.4c-0.7-0.3-1.2-0.7-1.6-1.2c-0.4-0.6-0.6-1.2-0.6-1.9h2.6c0,0.5,0.2,0.9,0.5,1.2c0.3,0.3,0.7,0.4,1.3,0.4
					c0.6,0,1-0.1,1.3-0.4c0.3-0.3,0.5-0.6,0.5-1.1c0-0.4-0.1-0.6-0.3-0.9c-0.2-0.2-0.5-0.4-0.8-0.6s-0.8-0.3-1.3-0.5
					c-0.8-0.2-1.4-0.5-1.9-0.7c-0.5-0.2-0.9-0.6-1.2-1c-0.4-0.5-0.5-1.1-0.5-1.8c0-0.7,0.2-1.3,0.6-1.8s0.9-0.9,1.5-1.2
					c0.6-0.3,1.4-0.4,2.2-0.4c1.2,0,2.3,0.3,3,0.9c0.8,0.6,1.2,1.4,1.3,2.5h-2.7c0-0.4-0.2-0.7-0.5-1c-0.3-0.3-0.8-0.4-1.3-0.4
					c-0.5,0-0.8,0.1-1.1,0.4c-0.3,0.2-0.4,0.6-0.4,1.1c0,0.3,0.1,0.6,0.3,0.8c0.2,0.2,0.5,0.4,0.8,0.5c0.3,0.1,0.8,0.3,1.3,0.5
					c0.8,0.2,1.4,0.5,1.9,0.7c0.5,0.2,0.9,0.6,1.3,1c0.4,0.5,0.6,1.1,0.6,1.8c0,0.6-0.2,1.2-0.5,1.8s-0.8,1-1.5,1.3
					c-0.6,0.3-1.4,0.5-2.3,0.5C86.8,70.8,86,70.6,85.4,70.4z"/>
				<path d="M96.4,60.6v3h4.1v1.9h-4.1v3.2h4.6v2h-7V58.6h7v2L96.4,60.6L96.4,60.6z"/>
				<path d="M110.7,59.4c1,0.5,1.7,1.2,2.2,2.1c0.5,0.9,0.8,2,0.8,3.2s-0.3,2.3-0.8,3.2c-0.5,0.9-1.2,1.6-2.2,2.1
					c-1,0.5-2.1,0.7-3.3,0.7h-4.2V58.7h4.2C108.6,58.6,109.7,58.9,110.7,59.4z M110.2,67.6c0.7-0.7,1-1.7,1-2.9c0-1.2-0.3-2.2-1-3
					c-0.7-0.7-1.7-1.1-3-1.1h-1.7v7.9h1.7C108.5,68.6,109.6,68.3,110.2,67.6z"/>
			</g>
			<g>
				<path d="M7.1,78.4C7.5,77.8,8,77.3,8.6,77c0.6-0.4,1.3-0.6,2.1-0.6c0.9,0,1.7,0.2,2.4,0.6c0.7,0.4,1.2,1.1,1.5,1.8H13
					c-0.2-0.4-0.5-0.7-0.9-1c-0.4-0.2-0.8-0.3-1.3-0.3c-0.6,0-1,0.1-1.5,0.4c-0.5,0.2-0.7,0.6-1,1.1c-0.3,0.5-0.4,1-0.4,1.6
					c0,0.6,0.1,1.2,0.4,1.6s0.6,0.8,1,1.1c0.5,0.2,0.9,0.4,1.5,0.4c0.5,0,0.9-0.1,1.3-0.3c0.4-0.2,0.7-0.6,0.9-1h1.6
					c-0.3,0.8-0.8,1.4-1.5,1.8c-0.7,0.4-1.5,0.6-2.4,0.6c-0.8,0-1.5-0.2-2.1-0.6c-0.6-0.4-1.2-0.9-1.5-1.5c-0.4-0.6-0.6-1.3-0.6-2.2
					C6.5,79.8,6.7,79.1,7.1,78.4z"/>
				<path d="M22.7,76.5v8.2h-1.3v-3.6h-3.9v3.6h-1.3v-8.2h1.3V80h3.9v-3.5H22.7z"/>
				<path d="M29.4,83.1H26l-0.6,1.7H24l3-8.2h1.5l3,8.2H30L29.4,83.1z M29,81.9l-1.3-3.8l-1.3,3.8H29z"/>
				<path d="M39.5,84.7h-1.3l-4.1-6.1v6.1h-1.3v-8.2h1.3l4.1,6.1v-6.1h1.3V84.7z"/>
				<path d="M48,84.7h-1.3l-4.1-6.1v6.1h-1.3v-8.2h1.3l4.1,6.1v-6.1H48V84.7z"/>
				<path d="M51.1,77.6V80H54v1.1h-2.9v2.5h3.2v1.1h-4.5v-8.2h4.5v1.1L51.1,77.6L51.1,77.6z"/>
				<path d="M57.3,83.7h2.8v1.1H56v-8.2h1.3V83.7z"/>
				<path d="M69.8,80.2c-0.2,0.4-0.5,0.7-1,0.9c-0.4,0.2-1,0.4-1.7,0.4h-1.5v3.3h-1.3v-8.2h2.9c0.6,0,1.2,0.1,1.6,0.3
					c0.4,0.2,0.8,0.5,1,0.9c0.2,0.4,0.3,0.8,0.3,1.2C70.1,79.4,70,79.8,69.8,80.2z M68.3,80c0.2-0.2,0.4-0.6,0.4-1
					c0-0.9-0.5-1.3-1.5-1.3h-1.5v2.7h1.5C67.7,80.3,68,80.2,68.3,80z"/>
				<path d="M76.3,83.1h-3.5l-0.6,1.7h-1.4l3-8.2h1.6l3,8.2h-1.4L76.3,83.1z M75.9,81.9l-1.3-3.8l-1.3,3.8H75.9z"/>
				<path d="M83.9,84.7L82,81.4h-1v3.3h-1.3v-8.2h2.9c0.6,0,1.2,0.1,1.6,0.3c0.4,0.2,0.8,0.5,1,0.9c0.2,0.4,0.3,0.8,0.3,1.2
					c0,0.6-0.1,1-0.5,1.5c-0.3,0.4-0.8,0.7-1.4,0.9l2,3.4L83.9,84.7L83.9,84.7z M81,80.4h1.5c0.5,0,0.9-0.1,1.2-0.4
					c0.3-0.2,0.4-0.6,0.4-1c0-0.4-0.1-0.7-0.4-1c-0.2-0.2-0.6-0.4-1.2-0.4H81V80.4z"/>
				<path d="M92.4,76.5v1.1h-2.2v7.1h-1.3v-7.1h-2.2v-1.1H92.4z"/>
				<path d="M100.5,84.7h-1.3l-4.1-6.1v6.1h-1.3v-8.2h1.3l4.1,6.1v-6.1h1.3V84.7z"/>
				<path d="M103.6,77.6V80h2.9v1.1h-2.9v2.5h3.2v1.1h-4.5v-8.2h4.5v1.1L103.6,77.6L103.6,77.6z"/>
				<path d="M112.7,84.7l-1.9-3.3h-1v3.3h-1.3v-8.2h2.9c0.6,0,1.2,0.1,1.6,0.3c0.4,0.2,0.8,0.5,1,0.9c0.2,0.4,0.3,0.8,0.3,1.2
					c0,0.6-0.1,1-0.5,1.5c-0.3,0.4-0.8,0.7-1.4,0.9l2,3.4L112.7,84.7L112.7,84.7z M109.8,80.4h1.5c0.5,0,0.9-0.1,1.2-0.4
					c0.3-0.2,0.4-0.6,0.4-1c0-0.4-0.1-0.7-0.4-1c-0.2-0.2-0.6-0.4-1.2-0.4h-1.5V80.4z"/>
			</g>
		</g>
		<line class="st5" x1="6.5" y1="53.5" x2="114.4" y2="53.5"/>
	</g>
	<line class="st6" x1="139.1" y1="24" x2="139.1" y2="93.8"/>
	<g>
		<g>
			<path d="M163.7,89V76.9h1.9l7.5,9.3h-0.9v-9.3h2.2V89h-1.9l-7.5-9.3h0.9V89H163.7z"/>
			<path d="M181.8,89.1c-0.9,0-1.9-0.2-2.7-0.6c-0.7-0.3-1.3-0.9-1.7-1.7c-0.3-0.7-0.6-1.5-0.6-2.4s0.2-1.7,0.6-2.4
				c0.3-0.7,0.9-1.3,1.7-1.7c0.7-0.3,1.5-0.6,2.4-0.6c0.9,0,1.7,0.2,2.4,0.6c0.7,0.3,1.3,0.9,1.7,1.7c0.3,0.7,0.6,1.5,0.6,2.4
				c0,0,0,0.2,0,0.3c0,0.1,0,0.2,0,0.3h-7.8v-1.5h6.6l-0.9,0.3c0-0.6,0-0.9-0.3-1.3c-0.2-0.3-0.6-0.7-0.9-0.9
				c-0.3-0.2-0.7-0.3-1.3-0.3s-0.9,0.2-1.3,0.3c-0.3,0.1-0.7,0.6-0.9,0.9c-0.2,0.3-0.3,0.9-0.3,1.5v0.3c0,0.6,0.2,1.2,0.3,1.5
				c0.2,0.3,0.6,0.7,1.2,0.9c0.3,0.2,0.9,0.3,1.5,0.3s0.9,0,1.3-0.2s0.7-0.3,1.2-0.7l1.2,1.3c-0.3,0.6-0.9,0.7-1.5,1.2
				C183.3,89,182.6,89.1,181.8,89.1z"/>
			<path d="M190.7,89.1c-0.7,0-1.3-0.2-1.9-0.3c-0.6-0.1-0.9-0.6-1.2-0.9c-0.2-0.3-0.3-0.9-0.3-1.5s0.2-0.9,0.3-1.3s0.6-0.7,1.2-0.9
				c0.6-0.2,1.3-0.3,2.2-0.3h2.7v1.5h-2.4c-0.7,0-1.2,0.2-1.5,0.3c-0.2,0.2-0.3,0.6-0.3,0.9s0.2,0.7,0.3,0.9
				c0.3,0.2,0.7,0.3,1.3,0.3s0.9-0.2,1.5-0.3c0.3-0.2,0.7-0.6,0.9-1.2l0.3,1.3c-0.2,0.6-0.6,0.9-1.2,1.3
				C192.2,89,191.4,89.1,190.7,89.1z M193.5,89v-1.9l-0.2-0.5v-3.2c0-0.6-0.2-1.2-0.6-1.5c-0.3-0.3-0.9-0.6-1.7-0.6
				c-0.6,0-0.9,0-1.5,0.2s-0.9,0.3-1.3,0.7l-0.7-1.4c0.6-0.3,1.2-0.7,1.7-0.9c0.7-0.2,1.3-0.3,2.1-0.3c1.3,0,2.4,0.3,3,0.9
				c0.7,0.6,1.2,1.7,1.2,3V89H193.5z"/>
			<path d="M198.4,89v-9.3h2.1v2.7l-0.2-0.7c0.2-0.6,0.7-1.2,1.3-1.5c0.6-0.3,1.3-0.6,2.2-0.6v2.1h-0.2h-0.2c-0.7,0-1.5,0.2-1.9,0.7
				c-0.3,0.6-0.7,1.2-0.7,2.1v4.3h-2.4C198.4,88.7,198.4,89,198.4,89z"/>
			<path d="M212.7,87h6.7v2h-9V76.9h8.8v1.9h-6.6V87H212.7z M212.5,81.9h6v1.9h-6V81.9z"/>
			<path d="M221.8,89V76.2h2.1V89H221.8z"/>
			<path d="M230.9,89.1c-0.9,0-1.9-0.2-2.7-0.6c-0.7-0.3-1.3-0.9-1.7-1.7c-0.3-0.7-0.6-1.5-0.6-2.4s0.2-1.7,0.6-2.4
				c0.3-0.7,0.9-1.3,1.7-1.7c0.7-0.3,1.5-0.6,2.4-0.6c0.9,0,1.7,0.2,2.4,0.6c0.7,0.3,1.3,0.9,1.7,1.7c0.3,0.7,0.6,1.5,0.6,2.4
				c0,0,0,0.2,0,0.3c0,0.1,0,0.2,0,0.3h-7.8v-1.5h6.6l-0.9,0.3c0-0.6,0-0.9-0.3-1.3c-0.2-0.3-0.6-0.7-0.9-0.9
				c-0.3-0.2-0.7-0.3-1.3-0.3s-0.9,0.2-1.3,0.3c-0.3,0.1-0.7,0.6-0.9,0.9c-0.2,0.3-0.3,0.9-0.3,1.5v0.3c0,0.6,0.2,1.2,0.3,1.5
				c0.2,0.3,0.6,0.7,1.2,0.9c0.3,0.2,0.9,0.3,1.5,0.3c0.6,0,0.9,0,1.3-0.2s0.7-0.3,1.2-0.7l1.2,1.3c-0.3,0.6-0.9,0.7-1.5,1.2
				C232.4,89,231.7,89.1,230.9,89.1z"/>
			<path d="M241.5,89.1c-0.9,0-1.9-0.2-2.7-0.6c-0.7-0.3-1.3-0.9-1.7-1.7c-0.3-0.7-0.6-1.5-0.6-2.4s0.2-1.7,0.6-2.4
				c0.3-0.7,0.9-1.3,1.7-1.7c0.7-0.3,1.7-0.6,2.7-0.6c0.9,0,1.7,0.2,2.2,0.6c0.7,0.3,1.2,0.9,1.5,1.5l-1.7,0.9
				c-0.2-0.3-0.6-0.7-0.9-0.9c-0.3-0.2-0.7-0.3-1.3-0.3s-0.9,0.2-1.5,0.3c-0.3,0.2-0.7,0.6-0.9,0.9c-0.2,0.3-0.3,0.9-0.3,1.5
				c0,0.6,0.2,1.2,0.3,1.5c0.2,0.3,0.6,0.7,0.9,0.9c0.3,0.2,0.9,0.3,1.5,0.3c0.3,0,0.9-0.2,1.3-0.3c0.3-0.1,0.7-0.6,0.9-0.9l1.7,0.9
				c-0.3,0.7-0.9,1.2-1.5,1.5C243.2,89,242.4,89.1,241.5,89.1z"/>
			<path d="M246.2,81.5v-1.7h6v1.7H246.2z M250.9,89.1c-0.9,0-1.7-0.2-2.2-0.7c-0.6-0.6-0.7-1.3-0.7-2.2v-8.2h2.1v8.1
				c0,0.3,0.2,0.7,0.3,0.9c0.2,0.2,0.6,0.3,0.9,0.3c0.3,0,0.9-0.2,1.2-0.3l0.6,1.5c-0.2,0.2-0.6,0.3-0.9,0.3
				C251.7,89,251.3,89.1,250.9,89.1z"/>
			<path d="M254.7,89v-9.3h2.1v2.7l-0.2-0.7c0.2-0.6,0.7-1.2,1.3-1.5c0.6-0.3,1.3-0.6,2.2-0.6v2.1h-0.2h-0.2c-0.7,0-1.5,0.2-1.9,0.7
				c-0.3,0.6-0.7,1.2-0.7,2.1v4.3h-2.4V89H254.7z"/>
			<path d="M265.8,89.1c-0.9,0-1.7-0.2-2.4-0.6c-0.7-0.3-1.3-0.9-1.7-1.7c-0.3-0.7-0.6-1.5-0.6-2.4s0.2-1.7,0.6-2.4
				c0.3-0.7,0.9-1.3,1.7-1.7c0.7-0.3,1.5-0.6,2.4-0.6s1.9,0.2,2.4,0.6c0.7,0.3,1.3,0.9,1.7,1.7c0.3,0.7,0.6,1.5,0.6,2.4
				c0,0.9-0.2,1.7-0.6,2.4c-0.3,0.7-0.9,1.3-1.7,1.7C267.7,89,266.7,89.1,265.8,89.1z M265.8,87.2c0.6,0,0.9-0.2,1.3-0.3
				c0.3-0.1,0.7-0.6,0.9-0.9s0.3-0.9,0.3-1.5s-0.2-1.2-0.3-1.5c-0.2-0.3-0.6-0.7-0.9-0.9c-0.3-0.2-0.9-0.3-1.3-0.3
				c-0.6,0-0.9,0.2-1.3,0.3c-0.3,0.1-0.7,0.6-0.9,0.9c-0.2,0.3-0.3,0.9-0.3,1.5s0.2,1.2,0.3,1.5c0.2,0.3,0.6,0.7,0.9,0.9
				C264.9,87.1,265.3,87.2,265.8,87.2z"/>
			<path d="M278,79.7c0.7,0,1.3,0.2,1.9,0.3c0.6,0.3,0.9,0.7,1.3,1.3s0.6,1.3,0.6,2.2V89h-2v-4.9c0-0.7-0.2-1.5-0.6-1.9
				c-0.3-0.3-0.9-0.6-1.7-0.6c-0.6,0-0.9,0.2-1.3,0.3c-0.3,0.1-0.7,0.6-0.9,0.9s-0.3,0.9-0.3,1.5v4.8h-2.1v-9.3h2.1v2.4l-0.3-0.7
				c0.3-0.6,0.7-1.2,1.3-1.3C276.5,79.9,277.3,79.7,278,79.7z"/>
			<path d="M285.5,78.2c-0.3,0-0.7-0.2-0.9-0.3c-0.2-0.2-0.3-0.6-0.3-0.9s0.2-0.6,0.3-0.9c0.2-0.2,0.6-0.3,0.9-0.3
				c0.3,0,0.7,0.2,0.9,0.3c0.2,0.1,0.3,0.6,0.3,0.9s-0.2,0.7-0.3,0.9C286.3,78.2,285.9,78.2,285.5,78.2z M284.6,89v-9.3h2.1V89
				H284.6z"/>
			<path d="M293.6,89.1c-0.9,0-1.9-0.2-2.7-0.6c-0.7-0.3-1.3-0.9-1.7-1.7c-0.3-0.7-0.6-1.5-0.6-2.4s0.2-1.7,0.6-2.4
				c0.3-0.7,0.9-1.3,1.7-1.7c0.7-0.3,1.7-0.6,2.7-0.6c0.9,0,1.7,0.2,2.2,0.6c0.7,0.3,1.2,0.9,1.5,1.5l-1.7,0.9
				c-0.2-0.3-0.6-0.7-0.9-0.9c-0.3-0.2-0.7-0.3-1.3-0.3s-0.9,0.2-1.5,0.3c-0.3,0.2-0.7,0.6-0.9,0.9c-0.2,0.3-0.3,0.9-0.3,1.5
				c0,0.6,0.2,1.2,0.3,1.5c0.2,0.3,0.6,0.7,0.9,0.9c0.3,0.2,0.9,0.3,1.5,0.3c0.3,0,0.9-0.2,1.3-0.3c0.3-0.1,0.7-0.6,0.9-0.9l1.7,0.9
				c-0.3,0.7-0.9,1.2-1.5,1.5C295.2,89,294.5,89.1,293.6,89.1z"/>
			<path d="M308.3,89.1c-0.9,0-1.9-0.2-2.7-0.6c-0.7-0.3-1.3-0.9-1.7-1.7c-0.3-0.7-0.6-1.5-0.6-2.4s0.2-1.7,0.6-2.4
				c0.3-0.7,0.9-1.3,1.7-1.7c0.7-0.3,1.7-0.6,2.7-0.6s1.7,0.2,2.2,0.6c0.7,0.3,1.2,0.9,1.5,1.5l-1.7,0.9c-0.2-0.3-0.6-0.7-0.9-0.9
				c-0.3-0.2-0.7-0.3-1.3-0.3s-0.9,0.2-1.5,0.3c-0.3,0.2-0.7,0.6-0.9,0.9c-0.2,0.3-0.3,0.9-0.3,1.5c0,0.6,0.2,1.2,0.3,1.5
				c0.2,0.3,0.6,0.7,0.9,0.9c0.3,0.2,0.9,0.3,1.5,0.3c0.3,0,0.9-0.2,1.3-0.3c0.3-0.1,0.7-0.6,0.9-0.9l1.7,0.9
				c-0.3,0.7-0.9,1.2-1.5,1.5C310,89,309.3,89.1,308.3,89.1z"/>
			<path d="M315.1,78.2c-0.3,0-0.7-0.2-0.9-0.3c-0.2-0.1-0.3-0.6-0.3-0.9s0.2-0.6,0.3-0.9c0.2-0.2,0.6-0.3,0.9-0.3s0.7,0.2,0.9,0.3
				c0.2,0.2,0.3,0.6,0.3,0.9s-0.2,0.7-0.3,0.9C315.8,78.2,315.4,78.2,315.1,78.2z M314.1,89v-9.3h2.1V89H314.1z"/>
			<path d="M317.7,81.5v-1.7h6v1.7H317.7z M322.4,89.1c-0.9,0-1.7-0.2-2.2-0.7c-0.6-0.6-0.7-1.3-0.7-2.2v-8.2h2.1v8.1
				c0,0.3,0.2,0.7,0.3,0.9c0.2,0.2,0.6,0.3,0.9,0.3s0.9-0.2,1.2-0.3l0.6,1.5c-0.2,0.2-0.6,0.3-0.9,0.3
				C323.2,89,322.8,89.1,322.4,89.1z"/>
			<path d="M326.9,92.3c-0.3,0-0.9,0-1.3-0.2s-0.7-0.3-1.2-0.6l0.7-1.5c0.2,0.2,0.3,0.3,0.7,0.3c0.2,0.2,0.6,0.2,0.9,0.2
				c0.3,0,0.7-0.2,0.9-0.3c0.2-0.2,0.3-0.6,0.7-0.9l0.6-1.2l0.2-0.2l3.4-8.1h2.1l-4.3,10c-0.3,0.7-0.6,1.2-0.9,1.7
				c-0.3,0.3-0.7,0.7-1.2,0.7C327.8,92.3,327.3,92.3,326.9,92.3z M328.6,89.3l-4.2-9.4h2.2l3.4,7.9L328.6,89.3z"/>
		</g>
		<g>
			<g>
				<circle class="st7" cx="271.9" cy="32.4" r="5.6"/>
				<circle class="st8" cx="285.3" cy="32.4" r="5.6"/>
				<circle class="st9" cx="298.6" cy="32.4" r="5.6"/>
				<circle class="st0" cx="312" cy="32.4" r="5.6"/>
			</g>
			<g>
				<path class="st10" d="M235.7,52.8c0.1,0,0.3,0,0.4,0c1.3-0.3,2.6-0.5,3.8-0.9s2.5-0.9,3.6-1.8c0.6-0.5,1.1-1.2,1.3-2
					c0.3-0.9-0.1-1.6-1.2-1.6c-0.4,0-1,0.1-1.4,0.1c-3,0.9-5.1,2.9-6.4,5.6C235.7,52.5,235.7,52.6,235.7,52.8 M316.1,58.3
					c0,0.1,0,0.4,0,0.5c0.1,1.3,0.9,1.8,2.1,1.6c0.5-0.1,1.1-0.3,1.6-0.5c4.4-2.2,6.7-6.1,7.9-10.6c0.4-1.3-0.4-2.2-1.8-2.4
					c-1.3-0.1-2.6,0.4-3.7,1.1c-2.4,1.4-3.9,3.4-5,5.9C316.6,55.3,316.1,56.7,316.1,58.3 M193.5,58.3c0,0.1,0,0.4,0,0.5
					c0.1,1.3,0.9,1.8,2.1,1.6c0.5-0.1,1.1-0.3,1.6-0.5c4.5-2.2,6.7-6.2,8-10.9c0.3-1.2-0.5-2.1-1.7-2.2s-2.4,0.1-3.3,0.8
					c-2.5,1.4-4.3,3.5-5.5,6.2C194,55.3,193.5,56.7,193.5,58.3 M329.8,45.2c0.1-0.4,0.4-0.7,0.4-1.1c0.4-0.9,1.1-1.4,2.1-1.4
					c1,0,1.8,0,2.9,0c1,0,1.3,0.6,0.9,1.4c-1.7,3.9-3.4,7.8-5.1,11.8c-0.4,0.9-0.8,1.8-1.1,2.8c-0.4,1.2,0.1,2.1,1.4,2.2
					c0.9,0.1,1.6-0.3,2.4-0.8c1.4-1,2.6-2.4,3.6-3.8c0.5-0.8,1.1-1.6,1.6-2.4c0.4-0.7,1-1,1.6-0.8c0.6,0.1,1,0.8,0.9,1.6
					c0,0.4-0.1,0.8-0.3,1.1c-1.3,2.4-2.6,4.6-4.5,6.4c-1.8,1.7-3.8,2.8-6.4,2.8c-2.4-0.1-4.3-0.9-5.5-3c-0.3-0.4-0.5-0.4-0.9-0.1
					c-1.1,1-2.1,1.8-3.5,2.4c-1.4,0.6-2.9,0.8-4.4,0.5c-2.4-0.4-3.8-1.7-4.5-3.8c-0.1-0.1-0.1-0.4-0.1-0.7c-0.1,0.1-0.3,0.3-0.4,0.4
					c-1.3,1.7-3,3.1-5,3.8c-2.1,0.7-4.4,0.8-6.6-0.3c-1.3-0.6-2.1-1.6-2.5-3c0-0.1-0.1-0.1-0.1-0.1c-1.1,0.7-2,1.6-3.1,2.1
					c-3.6,1.8-7.3,2.5-11.3,1.6c-2.6-0.6-4.5-2.4-5.3-5c0,0,0-0.1-0.1-0.1c0,0,0,0-0.1-0.1c-0.1,0.1-0.1,0.3-0.3,0.4
					c-1.3,1.7-2.7,3.3-4.7,4.1c-2.1,0.9-4.2,1.2-6.4,0.4c-2.1-0.8-3.3-2.7-3.3-5c0.1-1.1,0.3-2.1,0.7-3.3c0.8-2.1,1.7-4.1,2.5-6.2
					c0.3-0.7,0.5-1.3,0.6-2.1c0.3-1.3-0.3-1.8-1.6-1.7c-1.2,0.1-2.1,0.7-3,1.4c-1.7,1.4-3,3.3-3.9,5.2c-1.2,2.2-2.1,4.6-3.1,6.9
					c-0.5,1.2-1,2.2-1.6,3.4c-0.4,1.1-1.3,1.6-2.4,1.6c-0.9,0-1.7,0-2.6,0c-1,0-1.4-0.5-1-1.6c0.1-0.3,0.1-0.4,0.3-0.7
					c-1,0.4-2,1-3,1.3c-3.1,1.2-6.4,1.6-9.6,0.4c-2.4-0.7-4.1-2.4-5-4.8c0-0.1-0.1-0.1-0.1-0.1c-0.1,0.1-0.3,0.4-0.4,0.4
					c-1.1,1.4-2.2,2.8-3.8,3.7c-2.1,1.3-4.5,1.6-6.9,1.1c-1.8-0.4-3.1-1.4-3.8-3.3c-0.3,0.3-0.4,0.5-0.7,0.7c-1.8,1.8-4.1,3-6.8,2.8
					c-2.2-0.1-4.1-1-5.2-3c-0.3-0.4-0.5-0.4-0.9-0.1c-1.1,1-2.1,1.8-3.6,2.4c-1.4,0.6-2.9,0.8-4.4,0.5c-2.6-0.4-4.4-2.4-4.7-5.1
					c-0.4-3.8,0.6-7.2,2.6-10.3c1.6-2.5,3.6-4.5,6.2-5.8c1.8-1,3.8-1.4,6-1.1c1.3,0.1,2.5,0.8,3.4,1.8c0.1,0.1,0.4,0.4,0.5,0.6
					c0.1-0.4,0.4-0.7,0.4-1.1c0.4-0.9,1.1-1.4,2.1-1.4c1,0,1.8,0,2.9,0c1,0,1.3,0.6,0.9,1.4c-1.7,3.9-3.5,8-5.2,11.9
					c-0.4,0.9-0.7,1.7-1,2.6c-0.4,1.2,0.1,2.1,1.4,2.1c0.7,0.1,1.4-0.1,2-0.5c1.3-0.8,2.4-1.8,3.3-3.1c1.8-2.1,3-4.7,4.1-7.2
					c2.4-5.4,4.7-10.8,7.1-16c0.5-1.2,1.3-1.8,2.6-1.7c0.8,0,1.7,0,2.5,0c1,0,1.3,0.6,1,1.6c-0.7,1.6-1.4,3.3-2.1,4.8
					c-2.5,5.8-5.1,11.4-7.6,17.1c-0.4,0.7-0.6,1.6-0.9,2.4c-0.1,0.4-0.3,0.9-0.3,1.4c0,1,0.5,1.6,1.6,1.6c1.1,0,2.1-0.5,2.9-1.1
					c1.4-1,2.5-2.4,3.6-3.8c0.6-1,1.2-2,1.6-3c1.6-4.2,4.2-7.5,8.3-9.5c1.8-1,3.9-1.4,6.1-1c4.3,0.9,5.4,5.2,3.1,8.3
					c-1.3,1.8-3.3,3-5.5,3.8c-2.1,0.7-4.2,1.1-6.4,1.3c-0.9,0.1-0.9,0.1-0.8,0.9c0.1,2.4,1.8,4.1,4.4,4.3c3.5,0.3,6.6-0.9,9.2-3.3
					c1.6-1.6,2.7-3.3,3.6-5.1c1.3-2.8,2.5-5.5,3.7-8.4c0.4-1,1.2-1.6,2.4-1.6c0.9,0,1.7,0,2.6,0c1,0,1.3,0.5,1.1,1.4
					c0,0,0,0.1,0,0.3c0.1-0.1,0.4-0.3,0.4-0.4c1.8-1.3,3.9-1.7,6.1-1c2.1,0.6,3.3,2.5,3.3,4.7c0.1,1.7-0.4,3.3-1,5
					c-0.8,1.8-1.6,3.8-2.4,5.8c-0.6,1.6,0.1,2.5,1.8,2.4c0.7-0.1,1.3-0.4,2-0.8c1.4-1,2.5-2.4,3.5-3.7c0.4-0.4,0.7-1,1-1.4
					c0.4-0.6,0.6-1.3,0.9-2c1.7-4.6,4.6-8.1,9.2-10c2.1-0.9,4.3-1.2,6.4-0.1c4.2,1.8,3.7,6.4,1.3,8.4c-0.4,0.4-1.1,0.7-1.7,0.8
					c-1.1,0.1-2.1-0.5-2.5-1.6c-0.4-1-0.1-2,0.9-2.6c0.3-0.1,0.5-0.4,0.8-0.5c0.1-0.1,0.3-0.3,0.1-0.4c0-0.1-0.1-0.3-0.4-0.3
					c-0.8-0.1-1.6,0-2.4,0.3c-2.6,0.9-4.5,2.6-5.8,5c-0.7,1.3-1.2,2.7-1.3,4.2c-0.1,2.8,1.6,4.7,4.4,5c3.8,0.3,7-1.1,9.6-3.8
					c1.3-1.3,2.2-2.9,3-4.7c1.2-2.9,2.5-5.6,3.8-8.5c0.4-1,1.2-1.4,2.1-1.4c1,0,1.8,0,2.9,0c0.9,0,1.3,0.6,0.9,1.4
					c-1.6,3.7-3.3,7.3-4.8,11.1c-0.4,1.1-0.8,2.1-1.3,3.3c-0.1,0.3-0.1,0.6-0.1,0.9c-0.1,1,0.4,1.4,1.3,1.6c1.1,0.1,2.1-0.3,3-0.8
					c1.6-1.1,2.8-2.6,3.8-4.1c0.7-1,1.3-2.1,1.7-3.3c1.6-3.9,4.1-7,7.8-8.9c1.8-1,3.9-1.4,6.1-1.1c1.3,0.1,2.4,0.8,3.3,1.7
					C329.4,44.6,329.6,44.9,329.8,45.2"/>
				<path class="st10" d="M175.9,33.1c1.6,0.3,2.8,0.1,3.9-0.8c0.5-0.4,0.6-1.1,0.4-1.4c-0.3-0.4-0.8-0.5-1.4-0.3
					C177.6,31.1,176.7,31.9,175.9,33.1 M170.6,34.8C170.5,34.8,170.5,34.7,170.6,34.8c-2.7-1.2-5.5-2.2-8.2-3.3
					c-1.2-0.4-2.4-0.5-3.6-0.4c-1.7,0.4-2.8,1.6-2.8,3.1c0.1,2,2.2,3.3,3.9,2.2c0.4-0.3,0.9-0.4,1.4-0.4c0.8,0.1,1.2,0.9,0.9,1.6
					c-0.1,0.4-0.4,0.7-0.8,1c-2,1.3-4.1,1.4-6.1,0.4c-2-1-3.3-2.6-3.4-5c-0.3-3.5,2-6.4,5.5-7.3c2.2-0.5,4.5-0.1,6.6,0.6
					c1.6,0.6,3,1.3,4.6,2.1c1.3,0.6,2.5,1.3,3.8,1.8c0.4,0.1,0.6,0.1,0.9-0.1c1.1-1.3,2.4-2.2,3.8-3c0.7-0.4,1.6-0.6,2.4-0.5
					c2.8,0.1,4.3,3,2.9,5.4c-0.9,1.6-2.4,2.2-4.1,2.6c-1.1,0.3-2.1,0.3-3.3,0.1c-0.4-0.1-0.5,0.1-0.6,0.4c-2.1,4.1-3.7,8.4-5.1,12.7
					c-0.9,2.6-1.6,5.2-2,7.9c-0.1,1.3-0.4,2.6,0,3.9c0.4,1.4,1.3,1.8,2.5,1.2c1-0.4,1.8-1.2,2.4-2.1c1.3-1.7,2.6-3.4,3.8-5.2
					c3.3-5,6.4-10.1,9.6-15.2c1.8-2.8,3.5-5.6,5.5-8.3c1-1.3,2.1-2.4,3.4-3.3c1.4-1,3-1.4,4.6-1.1c0.9,0.1,1.6,0.7,2.1,1.4
					c0.5,0.9,0.1,1.8-0.8,2.1c-0.4,0.1-1,0-1.3-0.1c-0.7-0.4-1.3-0.1-1.8,0.4c-0.6,0.6-1.3,1.3-1.8,2.1c-1.2,2.1-2.4,4.1-3.4,6.3
					c-2.5,4.8-5,9.8-8,14.3c-1.8,2.9-3.9,5.6-6.6,8c-1.8,1.6-3.8,3-6.2,3.8c-1.3,0.4-2.7,0.5-4.1,0.1c-2.1-0.5-3.4-2-4.2-3.9
					c-0.8-2.1-0.8-4.3-0.5-6.4c0.4-4.1,1.8-7.9,3.5-11.5C167.3,40.3,168.9,37.4,170.6,34.8C170.6,34.9,170.6,34.8,170.6,34.8"/>
			</g>
		</g>
		<line class="st6" x1="335.3" y1="73.1" x2="158" y2="73.1"/>
	</g>
</g>
</svg>
